# xmcd
#
# Track frame offsets: 
#        150
#        23572
#        42487
#        59928
#        79374
#        97658
#        121126
#        132343
#        154705
#        177857
#
# Disc length: 2594 seconds
#
# Revision: 1
# Processed by: cddbd v1.5.2PL0 Copyright (c) Steve Scherf et al.
# Submitted via: ExactAudioCopy v0.99pb5
#
DISCID=7e0a200a
DTITLE=Kat Edmonson - Take to the Sky
DYEAR=2009
DGENRE=Convivium
TTITLE0=Summertime
TTITLE1=Just Like Heaven
TTITLE2=Night and Day
TTITLE3=Charade
TTITLE4=Lovefool
TTITLE5=Angel Eyes
TTITLE6=Just One Of Those Things
TTITLE7=One Fine Day
TTITLE8=(Just Like) Starting Over
TTITLE9=Spring Can Really Hang You Up The Most
EXTD=YEAR: 2009
EXTT0=
EXTT1=
EXTT2=
EXTT3=
EXTT4=
EXTT5=
EXTT6=
EXTT7=
EXTT8=
EXTT9=
PLAYORDER=
